<svg xmlns="http://www.w3.org/2000/svg" viewBox="0 0 128 128">
  <defs>
    <linearGradient id="bg" x1="18" y1="12" x2="110" y2="116" gradientUnits="userSpaceOnUse">
      <stop stop-color="#3B82F6"/>
      <stop offset="1" stop-color="#1D4ED8"/>
    </linearGradient>
    <filter id="shadow" x="-20%" y="-20%" width="140%" height="150%">
      <feDropShadow dx="0" dy="5" stdDeviation="4" flood-color="#12377B" flood-opacity=".32"/>
    </filter>
  </defs>
  <rect width="128" height="128" rx="28" fill="#2563EB"/>
  <path d="M92 8h8c11 0 20 9 20 20v8" fill="none" stroke="#93C5FD" stroke-linecap="round" stroke-width="5" opacity=".55"/>
  <path d="M28 28h25c0-6.6 5.4-12 12-12s12 5.4 12 12h23v23c6.6 0 12 5.4 12 12s-5.4 12-12 12v25H77c0-6.6-5.4-12-12-12s-12 5.4-12 12H28V75c6.6 0 12-5.4 12-12s-5.4-12-12-12V28Z" fill="#fff" filter="url(#shadow)"/>
  <path d="M82 48h25M82 64h25M82 80h25" stroke="#2563EB" stroke-linecap="round" stroke-width="5"/>
  <circle cx="91" cy="48" r="5" fill="#FBBF24"/>
  <circle cx="101" cy="64" r="5" fill="#FBBF24"/>
  <circle cx="91" cy="80" r="5" fill="#FBBF24"/>
</svg>
